<svg width="140" height="30" viewBox="0 0 140 30" fill="none" xmlns="http://www.w3.org/2000/svg">
<path fill-rule="evenodd" clip-rule="evenodd" d="M13.5 5.60852V9H12C7.2435 9 3.2265 12.162 1.935 16.5H0V22.5H1.935C3.2265 26.838 7.2435 30 12 30C13.962 30 16.038 30 18 30C22.7565 30 26.7735 26.838 28.065 22.5H30V16.5H28.065C26.7735 12.162 22.7565 9 18 9H16.5V5.61749C17.4045 5.09849 18.0135 4.12351 18.0135 3.00751C18.0135 1.34701 16.6665 0 15.0075 0C13.347 0 12 1.34701 12 3.00751C12 4.11751 12.603 5.08802 13.5 5.60852ZM4.5 19.5C4.5 20.328 4.5 19.5 4.5 19.5C4.5 15.3585 7.8585 12 12 12C13.962 12 16.038 12 18 12C22.1415 12 25.5 15.3585 25.5 19.5C25.5 19.506 25.5 19.5135 25.5 19.5195C25.5 23.6415 22.1415 27 18 27C16.038 27 13.962 27 12 27C7.8585 27 4.5 23.6415 4.5 19.5ZM18 18V21H21V18H18ZM9 18V21H12V18H9Z" fill="#015DFD"/>
<path d="M42 25.3538H52.8579V22.699H45.1636V12H42V25.3538Z" fill="black"/>
<path d="M54.6631 25.3538H65.9025V22.7467H57.8266V19.8056H65.6164V17.5164H57.8266V14.5913H65.9025V12H54.6631V25.3538Z" fill="black"/>
<path d="M78.6384 25.3538H81.9291L76.7466 12H72.2953L67.1286 25.3538H70.4035L71.2302 23.1123H77.8117L78.6384 25.3538ZM72.1204 20.7118L74.2189 15.0046H74.823L76.9215 20.7118H72.1204Z" fill="black"/>
<path d="M89.5162 12H83.3798V25.3538H89.5162C94.6988 25.3538 96.67 22.4764 96.67 18.6769C96.67 14.8774 94.6988 12 89.5162 12ZM89.5003 22.6831H86.5434L86.5752 14.6708H89.5003C92.0916 14.6708 93.4906 16.1015 93.4906 18.6769C93.4906 21.2523 92.0916 22.6831 89.5003 22.6831Z" fill="black"/>
<path d="M98.4275 25.3538H109.667V22.7467H101.591V19.8056H109.381V17.5164H101.591V14.5913H109.667V12H98.4275V25.3538Z" fill="black"/>
<path d="M111.056 25.3538H114.553L117.685 20.8072H117.987L121.119 25.3538H124.616L119.847 18.6769V18.5021L124.505 12H121.039L117.987 16.3718H117.685L114.617 12H111.167L115.841 18.5021V18.6769L111.056 25.3538Z" fill="black"/>
<path d="M139.48 12H136.11L132.549 17.9774H132.215L128.654 12H125.284L130.784 21.0615V25.3538H133.964V21.0774L139.48 12Z" fill="black"/>
</svg>
